<svg width="34" height="34" viewBox="0 0 34 34" fill="none" xmlns="http://www.w3.org/2000/svg">
<path fill-rule="evenodd" clip-rule="evenodd" d="M16.9997 31.1666C10.3214 31.1666 6.98233 31.1666 4.90767 29.092C2.83301 27.0173 2.83301 23.6782 2.83301 17C2.83301 10.3217 2.83301 6.98263 4.90767 4.90797C6.98233 2.83331 10.3214 2.83331 16.9997 2.83331C23.6779 2.83331 27.017 2.83331 29.0917 4.90797C31.1663 6.98263 31.1663 10.3217 31.1663 17C31.1663 23.6782 31.1663 27.0173 29.0917 29.092C27.017 31.1666 23.6779 31.1666 16.9997 31.1666ZM16.9997 11.6875C17.5865 11.6875 18.0622 12.1632 18.0622 12.75V15.9375H21.2497C21.8365 15.9375 22.3122 16.4132 22.3122 17C22.3122 17.5868 21.8365 18.0625 21.2497 18.0625H18.0622L18.0622 21.25C18.0622 21.8368 17.5865 22.3125 16.9997 22.3125C16.4129 22.3125 15.9372 21.8368 15.9372 21.25V18.0625H12.7497C12.1629 18.0625 11.6872 17.5868 11.6872 17C11.6872 16.4132 12.1629 15.9375 12.7497 15.9375H15.9372L15.9372 12.75C15.9372 12.1632 16.4129 11.6875 16.9997 11.6875Z" fill="#38B6FF"/>
</svg>
