<svg width="29" height="29" viewBox="0 0 29 29" fill="none" xmlns="http://www.w3.org/2000/svg">
<path d="M28.3333 14.1667C28.3333 21.9907 21.9907 28.3333 14.1667 28.3333C6.34263 28.3333 0 21.9907 0 14.1667C0 6.34263 6.34263 0 14.1667 0C21.9907 0 28.3333 6.34263 28.3333 14.1667Z" fill="white"/>
<path d="M9.8737 9.8737C10.2886 9.45877 10.9614 9.45877 11.3763 9.8737L14.1667 12.6641L16.957 9.87373C17.372 9.4588 18.0447 9.4588 18.4596 9.87373C18.8746 10.2887 18.8746 10.9614 18.4596 11.3763L15.6693 14.1667L18.4596 16.957C18.8745 17.3719 18.8745 18.0447 18.4596 18.4596C18.0447 18.8745 17.3719 18.8745 16.957 18.4596L14.1667 15.6693L11.3763 18.4596C10.9614 18.8746 10.2887 18.8746 9.87373 18.4596C9.4588 18.0447 9.4588 17.372 9.87373 16.957L12.6641 14.1667L9.8737 11.3763C9.45877 10.9614 9.45877 10.2886 9.8737 9.8737Z" fill="#010101"/>
</svg>
