<svg width="24" height="24" viewBox="0 0 24 24" fill="none" xmlns="http://www.w3.org/2000/svg">
<circle cx="12" cy="12" r="12" fill="white"/>
<path d="M7.3335 17.8333H16.6668" stroke="#38B6FF" stroke-width="1.5" stroke-linecap="round"/>
<path d="M13.1015 7.13673L13.5341 6.70418C14.2507 5.98752 15.4127 5.98752 16.1293 6.70418C16.846 7.42085 16.846 8.58278 16.1293 9.29945L15.6968 9.73199M13.1015 7.13673C13.1015 7.13673 13.1556 8.05588 13.9666 8.8669C14.7776 9.67792 15.6968 9.73199 15.6968 9.73199M13.1015 7.13673L9.12495 11.1133C8.85561 11.3826 8.72093 11.5173 8.60512 11.6658C8.46849 11.841 8.35136 12.0305 8.25579 12.231C8.17477 12.401 8.11454 12.5817 7.99409 12.9431L7.48367 14.4743M15.6968 9.73199L11.7202 13.7086C11.4509 13.9779 11.3162 14.1126 11.1677 14.2284C10.9925 14.365 10.803 14.4822 10.6025 14.5777C10.4325 14.6587 10.2518 14.719 9.89045 14.8394L8.35919 15.3498M8.35919 15.3498L7.98489 15.4746C7.80706 15.5339 7.611 15.4876 7.47846 15.3551C7.34591 15.2225 7.29963 15.0265 7.35891 14.8486L7.48367 14.4743M8.35919 15.3498L7.48367 14.4743" stroke="#38B6FF" stroke-width="1.5"/>
</svg>
