<svg width="20" height="20" viewBox="0 0 20 20" fill="none" xmlns="http://www.w3.org/2000/svg">
<path d="M3.33325 18.3333H16.6666" stroke="#717D89" stroke-width="1.5" stroke-linecap="round"/>
<path d="M11.5733 3.05246L12.1912 2.43454C13.215 1.41074 14.8749 1.41074 15.8987 2.43454C16.9225 3.45834 16.9225 5.11825 15.8987 6.14206L15.2808 6.75998M11.5733 3.05246C11.5733 3.05246 11.6505 4.36554 12.8091 5.52414C13.9677 6.68274 15.2808 6.75998 15.2808 6.75998M11.5733 3.05246L5.89247 8.73329C5.50769 9.11806 5.31531 9.31045 5.14985 9.52258C4.95468 9.77281 4.78734 10.0436 4.65081 10.33C4.53507 10.5729 4.44904 10.831 4.27696 11.3472L3.54779 13.5347M15.2808 6.75998L9.59999 12.4408C9.21521 12.8256 9.02282 13.018 8.8107 13.1834C8.56046 13.3786 8.28971 13.5459 8.00324 13.6825C7.76038 13.7982 7.50227 13.8842 6.98604 14.0563L4.79853 14.7855M4.79853 14.7855L4.26381 14.9637C4.00977 15.0484 3.72969 14.9823 3.54034 14.7929C3.35099 14.6036 3.28487 14.3235 3.36955 14.0695L3.54779 13.5347M4.79853 14.7855L3.54779 13.5347" stroke="#717D89" stroke-width="1.5"/>
</svg>
