<svg width="24" height="24" viewBox="0 0 24 24" fill="none" xmlns="http://www.w3.org/2000/svg">
<path d="M23.3518 23.3761C23.3599 23.368 23.368 23.3599 23.3761 23.3518C24.1083 22.6196 24.206 21.4701 23.6164 20.6188C21.9366 18.1937 19.7362 16.1841 17.1475 14.7217L14.7217 17.1475C16.1841 19.7362 18.1938 21.9366 20.6189 23.6164C21.4701 24.206 22.6197 24.1083 23.3518 23.3761Z" fill="url(#paint0_linear_12262_7433)"/>
<path d="M20.1479 16.8055L16.8057 20.1478C16.024 19.2201 15.3262 18.2171 14.722 17.1475L17.1477 14.7218C18.2173 15.3259 19.2203 16.0238 20.1479 16.8055Z" fill="url(#paint1_linear_12262_7433)"/>
<path d="M23.9575 22.2672C23.877 22.6668 23.6823 23.0458 23.3763 23.3518C23.3682 23.3599 23.3601 23.368 23.352 23.3761C22.6198 24.1083 21.4703 24.206 20.6191 23.6164C18.194 21.9366 16.1843 19.7363 14.722 17.1475L16.7799 15.0895L23.9575 22.2672Z" fill="url(#paint2_linear_12262_7433)"/>
<path d="M8.71742 17.4348C3.90294 17.4348 3.24249e-05 13.5319 3.24249e-05 8.71739C3.24249e-05 3.90291 3.90294 0 8.71742 0C13.5319 0 17.4348 3.90291 17.4348 8.71739C17.4348 13.5319 13.5319 17.4348 8.71742 17.4348Z" fill="url(#paint3_linear_12262_7433)"/>
<path d="M8.71752 15.745C4.83629 15.745 1.68993 12.5986 1.68993 8.71741C1.68993 4.83618 4.83629 1.68982 8.71752 1.68982C12.5988 1.68982 15.7451 4.83618 15.7451 8.71741C15.7451 12.5986 12.5988 15.745 8.71752 15.745Z" fill="url(#paint4_linear_12262_7433)"/>
<path d="M17.4348 8.7174C17.4348 13.5318 13.5319 17.4348 8.71742 17.4348C3.90294 17.4348 3.24249e-05 13.5318 3.24249e-05 8.7174C3.24249e-05 7.67471 0.183735 6.6751 0.519455 5.74829H16.9154C17.2511 6.67506 17.4348 7.67467 17.4348 8.7174Z" fill="url(#paint5_linear_12262_7433)"/>
<path d="M14.8816 14.8815C11.4772 18.2858 5.95768 18.2858 2.55333 14.8815C-0.851011 11.4772 -0.851011 5.95757 2.55333 2.55328C3.29063 1.81598 4.12735 1.23904 5.02008 0.821106L16.6138 12.4147C16.1958 13.3075 15.6188 14.1442 14.8816 14.8815Z" fill="url(#paint6_linear_12262_7433)"/>
<path d="M8.71731 14.6583C5.43625 14.6583 2.77642 11.9984 2.77642 8.71738C2.77642 5.43632 5.43625 2.77649 8.71731 2.77649C11.9984 2.77649 14.6582 5.43632 14.6582 8.71738C14.6582 11.9984 11.9984 14.6583 8.71731 14.6583Z" fill="url(#paint7_linear_12262_7433)"/>
<path d="M2.77642 8.71738C2.77642 5.43632 5.43625 2.77649 8.71731 2.77649C11.9984 2.77649 14.6582 5.43632 14.6582 8.71738C14.6582 9.42796 14.533 10.1092 14.3042 10.7408H3.13042C2.90162 10.1092 2.77642 9.42796 2.77642 8.71738Z" fill="url(#paint8_linear_12262_7433)"/>
<path d="M4.51649 4.51653C6.83652 2.1965 10.5981 2.19645 12.9182 4.51653C15.2382 6.83656 15.2382 10.5981 12.9182 12.9182C12.4157 13.4207 11.8455 13.8139 11.2371 14.0987L3.33604 6.19765C3.62085 5.58922 4.01404 5.01898 4.51649 4.51653Z" fill="url(#paint9_linear_12262_7433)"/>
<path d="M8.71733 14.0281C5.78428 14.0281 3.40658 11.6504 3.40658 8.71737C3.40658 5.78432 5.78428 3.40662 8.71733 3.40662C11.6504 3.40662 14.0281 5.78432 14.0281 8.71737C14.0281 11.6504 11.6504 14.0281 8.71733 14.0281Z" fill="url(#paint10_linear_12262_7433)"/>
<path d="M15.1942 17.5695L17.5695 15.1941C17.7488 15.0149 17.6539 14.6292 17.3575 14.3328C17.1037 14.0791 16.7772 13.9675 16.5747 14.0654L16.3439 14.1768C15.3805 14.6423 14.6424 15.3804 14.1769 16.3439L14.0654 16.5746C13.9676 16.7771 14.0792 17.1036 14.3329 17.3574C14.6294 17.6538 15.0149 17.7487 15.1942 17.5695Z" fill="url(#paint11_linear_12262_7433)"/>
<path d="M15.1942 17.5695C15.0149 17.7487 14.6293 17.6538 14.3329 17.3574C14.0791 17.1037 13.9675 16.7772 14.0654 16.5747L14.1769 16.3439C14.4096 15.8622 14.7105 15.4368 15.0736 15.0737L16.3818 16.3819L15.1942 17.5695Z" fill="url(#paint12_linear_12262_7433)"/>
<path d="M17.3575 14.3328C17.6538 14.6292 17.7488 15.0148 17.5695 15.1941L15.1942 17.5694C15.0149 17.7487 14.6293 17.6538 14.3329 17.3574C14.1786 17.2031 14.0774 17.0221 14.0433 16.8582L16.8583 14.0432C17.0222 14.0773 17.2032 14.1786 17.3575 14.3328Z" fill="url(#paint13_linear_12262_7433)"/>
<path d="M14.3052 16.2618L16.2615 14.3054C16.4092 14.1577 16.331 13.8402 16.0869 13.596C15.8779 13.3871 15.609 13.2951 15.4422 13.3757L15.2521 13.4675C14.4586 13.8509 13.8507 14.4588 13.4673 15.2524L13.3755 15.4424C13.2949 15.6092 13.3868 15.8781 13.5958 16.0871C13.8399 16.3312 14.1576 16.4094 14.3052 16.2618Z" fill="url(#paint14_linear_12262_7433)"/>
<path d="M14.3055 16.2618C14.1578 16.4094 13.8403 16.3312 13.5961 16.0871C13.3872 15.8782 13.2953 15.6092 13.3758 15.4424L13.4677 15.2524C13.6594 14.8556 13.9072 14.5052 14.2063 14.2062L15.2837 15.2836L14.3055 16.2618Z" fill="url(#paint15_linear_12262_7433)"/>
<path d="M16.0871 13.596C16.3312 13.8402 16.4094 14.1577 16.2618 14.3054L14.3054 16.2618C14.1577 16.4094 13.8402 16.3312 13.596 16.0871C13.469 15.9601 13.3856 15.811 13.3575 15.676L15.676 13.3575C15.811 13.3856 15.9601 13.469 16.0871 13.596Z" fill="url(#paint16_linear_12262_7433)"/>
<path d="M23.1357 19.955C23.3003 20.1726 23.4607 20.3939 23.6164 20.6188C23.7197 20.768 23.8014 20.9263 23.8628 21.0899L21.0899 23.8627C20.9264 23.8013 20.768 23.7196 20.6189 23.6164C20.394 23.4606 20.1727 23.3002 19.955 23.1356L23.1357 19.955Z" fill="url(#paint17_linear_12262_7433)"/>
<defs>
<linearGradient id="paint0_linear_12262_7433" x1="20.7985" y1="18.5001" x2="19.4375" y2="19.8612" gradientUnits="userSpaceOnUse">
<stop stop-color="#5A5A5A"/>
<stop offset="1" stop-color="#444444"/>
</linearGradient>
<linearGradient id="paint1_linear_12262_7433" x1="17.5412" y1="17.541" x2="16.3306" y2="16.3304" gradientUnits="userSpaceOnUse">
<stop stop-color="#433F43" stop-opacity="0"/>
<stop offset="1" stop-color="#1A1A1A"/>
</linearGradient>
<linearGradient id="paint2_linear_12262_7433" x1="19.707" y1="19.5917" x2="18.1462" y2="21.1526" gradientUnits="userSpaceOnUse">
<stop stop-color="#433F43" stop-opacity="0"/>
<stop offset="1" stop-color="#1A1A1A"/>
</linearGradient>
<linearGradient id="paint3_linear_12262_7433" x1="14.0497" y1="3.38508" x2="4.43056" y2="13.0043" gradientUnits="userSpaceOnUse">
<stop stop-color="#B3DAFE"/>
<stop offset="1" stop-color="#0182FC"/>
</linearGradient>
<linearGradient id="paint4_linear_12262_7433" x1="3.79893" y1="13.636" x2="14.3849" y2="3.04999" gradientUnits="userSpaceOnUse">
<stop stop-color="#B3DAFE"/>
<stop offset="1" stop-color="#0182FC"/>
</linearGradient>
<linearGradient id="paint5_linear_12262_7433" x1="8.71742" y1="8.8277" x2="8.71742" y2="19.0825" gradientUnits="userSpaceOnUse">
<stop stop-color="#314DC9" stop-opacity="0"/>
<stop offset="0.2761" stop-color="#304BC4" stop-opacity="0.276"/>
<stop offset="0.5628" stop-color="#2B45B8" stop-opacity="0.563"/>
<stop offset="0.8535" stop-color="#243BA3" stop-opacity="0.854"/>
<stop offset="1" stop-color="#1F3596"/>
</linearGradient>
<linearGradient id="paint6_linear_12262_7433" x1="8.62694" y1="8.78978" x2="0.995316" y2="16.4214" gradientUnits="userSpaceOnUse">
<stop stop-color="#314DC9" stop-opacity="0"/>
<stop offset="0.2761" stop-color="#304BC4" stop-opacity="0.276"/>
<stop offset="0.5628" stop-color="#2B45B8" stop-opacity="0.563"/>
<stop offset="0.8535" stop-color="#243BA3" stop-opacity="0.854"/>
<stop offset="1" stop-color="#1F3596"/>
</linearGradient>
<linearGradient id="paint7_linear_12262_7433" x1="5.08333" y1="12.3513" x2="11.6388" y2="5.7959" gradientUnits="userSpaceOnUse">
<stop stop-color="#F5FBFF"/>
<stop offset="1" stop-color="#DBD5EF"/>
</linearGradient>
<linearGradient id="paint8_linear_12262_7433" x1="9.397" y1="6.72796" x2="10.8304" y2="2.53372" gradientUnits="userSpaceOnUse">
<stop stop-color="#DBD5EF" stop-opacity="0"/>
<stop offset="0.2853" stop-color="#D9D2EE" stop-opacity="0.285"/>
<stop offset="0.4739" stop-color="#D4C9E9" stop-opacity="0.474"/>
<stop offset="0.6346" stop-color="#CBBAE2" stop-opacity="0.635"/>
<stop offset="0.7795" stop-color="#BFA5D7" stop-opacity="0.78"/>
<stop offset="0.9126" stop-color="#AF8ACA" stop-opacity="0.913"/>
<stop offset="1" stop-color="#A274BF"/>
</linearGradient>
<linearGradient id="paint9_linear_12262_7433" x1="11.6349" y1="7.31666" x2="14.2895" y2="6.04245" gradientUnits="userSpaceOnUse">
<stop stop-color="#DBD5EF" stop-opacity="0"/>
<stop offset="0.2853" stop-color="#D9D2EE" stop-opacity="0.285"/>
<stop offset="0.4739" stop-color="#D4C9E9" stop-opacity="0.474"/>
<stop offset="0.6346" stop-color="#CBBAE2" stop-opacity="0.635"/>
<stop offset="0.7795" stop-color="#BFA5D7" stop-opacity="0.78"/>
<stop offset="0.9126" stop-color="#AF8ACA" stop-opacity="0.913"/>
<stop offset="1" stop-color="#A274BF"/>
</linearGradient>
<linearGradient id="paint10_linear_12262_7433" x1="14.5776" y1="2.85705" x2="6.90336" y2="10.5313" gradientUnits="userSpaceOnUse">
<stop stop-color="white"/>
<stop offset="1" stop-color="#EAF6FF" stop-opacity="0"/>
</linearGradient>
<linearGradient id="paint11_linear_12262_7433" x1="15.2939" y1="15.2769" x2="16.2395" y2="16.2225" gradientUnits="userSpaceOnUse">
<stop stop-color="#FEF0AE"/>
<stop offset="1" stop-color="#FAC600"/>
</linearGradient>
<linearGradient id="paint12_linear_12262_7433" x1="15.1292" y1="16.7489" x2="14.8438" y2="17.6169" gradientUnits="userSpaceOnUse">
<stop stop-color="#FE9738" stop-opacity="0"/>
<stop offset="1" stop-color="#FE9738"/>
</linearGradient>
<linearGradient id="paint13_linear_12262_7433" x1="15.8296" y1="15.8126" x2="16.4212" y2="16.4042" gradientUnits="userSpaceOnUse">
<stop stop-color="#FE9738" stop-opacity="0"/>
<stop offset="1" stop-color="#FE9738"/>
</linearGradient>
<linearGradient id="paint14_linear_12262_7433" x1="14.3877" y1="14.3709" x2="15.1665" y2="15.1497" gradientUnits="userSpaceOnUse">
<stop stop-color="#FEF0AE"/>
<stop offset="1" stop-color="#FAC600"/>
</linearGradient>
<linearGradient id="paint15_linear_12262_7433" x1="14.2523" y1="15.5833" x2="14.0173" y2="16.2982" gradientUnits="userSpaceOnUse">
<stop stop-color="#FE9738" stop-opacity="0"/>
<stop offset="1" stop-color="#FE9738"/>
</linearGradient>
<linearGradient id="paint16_linear_12262_7433" x1="14.8292" y1="14.8122" x2="15.3164" y2="15.2994" gradientUnits="userSpaceOnUse">
<stop stop-color="#FE9738" stop-opacity="0"/>
<stop offset="1" stop-color="#FE9738"/>
</linearGradient>
<linearGradient id="paint17_linear_12262_7433" x1="23.9625" y1="15.3748" x2="21.267" y2="24.2188" gradientUnits="userSpaceOnUse">
<stop stop-color="#433F43" stop-opacity="0"/>
<stop offset="1" stop-color="#1A1A1A"/>
</linearGradient>
</defs>
</svg>
